<?xml version="1.0" standalone="no"?>
<!DOCTYPE svg PUBLIC "-//W3C//DTD SVG 20010904//EN"
 "http://www.w3.org/TR/2001/REC-SVG-20010904/DTD/svg10.dtd">
<svg version="1.0" xmlns="http://www.w3.org/2000/svg"
 width="700.000000pt" height="700.000000pt" viewBox="0 0 700.000000 700.000000"
 preserveAspectRatio="xMidYMid meet">
<metadata>
Created by potrace 1.14, written by Peter Selinger 2001-2017
</metadata>
<g transform="translate(0.000000,700.000000) scale(0.100000,-0.100000)"
fill="#000000" stroke="none">
<path d="M2505 6009 c-2 -3 -6 -16 -8 -30 -3 -13 -12 -63 -21 -110 -9 -47 -18
-99 -20 -115 -3 -26 -30 -179 -40 -230 -2 -12 -7 -45 -11 -75 -4 -30 -8 -56
-10 -59 -3 -5 -25 -128 -41 -225 -2 -16 -9 -57 -15 -90 -6 -33 -12 -69 -14
-80 -1 -11 -6 -38 -10 -60 -4 -22 -9 -49 -11 -60 -12 -67 -108 -615 -120 -685
-17 -104 -22 -131 -34 -195 -5 -27 -12 -66 -15 -85 -3 -19 -14 -84 -25 -145
-18 -102 -22 -129 -34 -195 -8 -41 -66 -382 -72 -416 l-5 -30 501 0 c461 1
500 0 500 -16 0 -9 -7 -43 -15 -75 -24 -99 -74 -307 -79 -333 -4 -24 -29 -130
-83 -350 -14 -58 -27 -116 -29 -130 -3 -14 -11 -47 -19 -75 -8 -27 -16 -63
-19 -80 -10 -53 -40 -181 -71 -305 -16 -64 -45 -186 -51 -215 -5 -24 -9 -42
-28 -121 -8 -34 -17 -72 -20 -85 -2 -13 -21 -91 -41 -172 -20 -82 -35 -152
-33 -157 2 -7 129 146 253 305 8 11 55 70 103 130 48 61 119 151 157 200 38
50 72 92 75 95 4 3 40 48 81 100 41 52 79 102 86 110 7 8 87 110 178 225 173
219 486 614 760 959 393 496 670 848 677 859 5 9 -123 12 -557 11 l-563 0 103
205 c56 114 281 563 499 1000 218 436 394 796 391 800 -8 8 -2246 8 -2250 0z"/>
</g>
</svg>
